<svg width="377" height="377" viewBox="0 0 377 377" fill="none" xmlns="http://www.w3.org/2000/svg">
<path fill-rule="evenodd" clip-rule="evenodd" d="M188.5 377C292.606 377 377 292.606 377 188.5C377 84.3943 292.606 0 188.5 0C84.3943 0 0 84.3943 0 188.5C0 292.606 84.3943 377 188.5 377Z" fill="#F6F6F6"/>
<mask id="mask0" mask-type="alpha" maskUnits="userSpaceOnUse" x="0" y="0" width="377" height="377">
<path fill-rule="evenodd" clip-rule="evenodd" d="M188.5 377C292.606 377 377 292.606 377 188.5C377 84.3943 292.606 0 188.5 0C84.3943 0 0 84.3943 0 188.5C0 292.606 84.3943 377 188.5 377Z" fill="white"/>
</mask>
<g mask="url(#mask0)">
<path fill-rule="evenodd" clip-rule="evenodd" d="M91.7071 250.169L100.445 244L113.647 253.321H109.052V273.59H98.3246V273.595H74.4144V258.896H68L86.2656 246.466L91.7071 250.169Z" fill="#EFEFEE"/>
<mask id="mask1" mask-type="alpha" maskUnits="userSpaceOnUse" x="92" y="198" width="52" height="72">
<path fill-rule="evenodd" clip-rule="evenodd" d="M92 198H144V270H92V198Z" fill="white"/>
</mask>
<g mask="url(#mask1)">
<path fill-rule="evenodd" clip-rule="evenodd" d="M132.588 238.05C131.832 238.005 131.165 237.912 130.57 237.787C130.839 237.35 131.779 236.052 133.854 235.285C136.368 234.354 137.952 234.326 137.952 234.326C133.086 234.182 130.392 236.262 129.401 237.462C126.458 236.454 125.981 234.566 125.981 234.566C125.981 234.566 131.043 232.301 132.588 230.384C134.132 228.468 139.624 223.329 142.628 222.457L142.714 221.411C142.714 221.411 134.99 225.506 131.558 228.817C128.126 232.127 118.601 235.175 118.601 235.175C118.601 235.175 121.519 228.642 122.72 227.509C123.921 226.376 126.41 222.718 127.182 222.457C127.812 222.245 128.493 222.387 129.156 222.413C133.301 222.571 137.479 218.188 137.479 218.188L136.793 217.927C133.618 220.977 128.64 221.064 127.61 219.844C126.581 218.624 128.64 211.829 128.64 211.829L127.869 212.091C126.324 213.658 125.81 221.498 125.81 221.498C125.81 221.498 124.883 222.324 123.747 223.576L123.763 223.557C123.763 223.557 122.377 220.41 122.935 217.884C123.492 215.358 123.854 215.437 124.522 213.658C125.125 212.052 124.522 207.343 124.522 207.343C124.479 208.693 124.05 213.005 123.148 214.443C122.249 215.88 122.183 219.539 122.183 219.539C121.046 219.495 120.66 219.19 119.416 218.058C118.173 216.926 115.383 211.437 115.383 211.437L114.525 211.176C115.083 211.637 117.055 215.814 118.562 218.493C119.389 219.964 121.862 221.455 121.862 221.455L122.183 225.446L122.196 225.431C121.396 226.48 120.64 227.647 120.146 228.817C119.701 229.871 118.997 231.053 118.224 232.206C118.219 232.189 117.989 231.51 117.973 230.025C117.968 229.532 118.054 228.163 118.225 227.282C118.35 226.632 118.499 226.164 118.632 225.517C118.955 223.949 118.632 223.557 118.632 223.557C118.632 224.177 118.215 226.333 117.796 227.215C117.609 227.609 117.506 228.035 117.443 228.466C117.387 228.838 117.447 229.316 117.326 229.667C117.063 230.432 116.159 229.157 115.915 228.869C115.495 228.372 115.169 227.486 114.798 226.973C114.365 226.375 113.864 226.108 113.42 225.517C113.42 225.517 115.137 228.359 115.523 229.568C115.909 230.776 117.314 231.234 117.314 231.234C117.314 231.234 117.342 232.941 117.408 233.378C115.706 235.739 113.968 237.702 113.968 237.702C113.968 237.702 109.591 231.517 109.934 224.461C110.278 217.404 110.364 218.362 111.65 213.745C112.938 209.129 111.993 200.331 111.993 200.331L111.565 201.637C111.542 203.399 111.449 205.164 111.312 206.922C111.203 208.309 110.994 209.576 110.721 210.818C110.583 210.626 107.735 206.63 107.295 204.229C106.845 201.767 105.043 198 105.043 198L104.808 198.306C104.808 198.306 106.502 202.378 106.524 203.444C106.545 204.513 106.502 207.195 108.433 209.761C110.028 211.879 110.28 212.318 110.321 212.409C110.022 213.482 109.682 214.557 109.264 215.689C108.197 218.58 108.283 221.767 108.218 224.81C108.217 224.861 105.981 224.452 105.827 224.404C105.349 224.252 105.023 224.008 104.631 223.708C104.215 223.393 103.849 223.018 103.506 222.621C103.698 221.958 104.322 219.723 104.313 218.755C104.281 214.597 102.576 212.353 102.576 212.353H101.901C101.901 212.353 103.67 215.489 103.638 217.939C103.612 219.909 102.955 221.144 102.695 221.557C102.292 220.953 101.932 220.321 101.611 219.669C99.98 216.359 93.716 209.303 93.716 209.303L92 208.519C92 208.519 98.0067 214.53 100.753 220.802C103.498 227.074 108.218 228.468 108.218 228.468C108.047 230.036 108.99 236.57 109.334 237.267C109.334 237.267 106.073 236.047 103.498 234.207C102.684 233.625 101.99 232.557 101.353 231.778C98.4365 228.207 94.5746 226.028 94.5746 226.028C94.5746 226.028 94.7461 226.987 95.0902 227.074C95.4321 227.161 98.8652 229.252 100.496 232.214C101.277 233.634 102.87 235.113 104.543 236.288L104.486 236.254C104.046 236.904 103.295 237.266 102.477 237.473C102.192 237.206 101.774 236.847 101.161 236.362C98.7795 234.484 96.6079 234.909 96.6079 234.909C97.475 235.024 99.9532 235.668 101.497 237.655C101.066 237.708 100.641 237.737 100.26 237.752C99.7902 237.768 99.9692 237.734 97.4268 237.669C94.8854 237.604 93.0301 238.311 93.0301 238.311C96.3764 237.963 100.237 238.66 101.954 238.66C103.67 238.66 105.282 238.393 106.246 237.368L106.227 237.356C107.456 238.051 108.594 238.51 109.334 238.572L109.888 242.518L109.365 270H115.13L115.277 242.82L116.713 238.398C118.944 237.702 123.234 236.134 123.234 236.134C123.234 236.134 126.153 239.357 131.815 238.922C137.479 238.485 144 240.926 144 240.926V240.403C144 239.88 138.423 238.398 132.588 238.05Z" fill="#E2E2E2"/>
</g>
<path fill-rule="evenodd" clip-rule="evenodd" d="M160.197 251.919C159.747 251.893 159.348 251.836 158.994 251.761C159.154 251.501 159.714 250.726 160.951 250.268C162.45 249.712 163.395 249.695 163.395 249.695C160.494 249.609 158.888 250.851 158.297 251.568C156.543 250.965 156.258 249.839 156.258 249.839C156.258 249.839 159.276 248.485 160.197 247.341C161.118 246.197 164.391 243.126 166.182 242.607L166.234 241.981C166.234 241.981 161.63 244.427 159.583 246.404C157.537 248.382 151.858 250.202 151.858 250.202C151.858 250.202 153.598 246.3 154.314 245.624C155.031 244.948 156.514 242.762 156.974 242.607C157.35 242.479 157.756 242.566 158.152 242.58C160.622 242.675 163.113 240.057 163.113 240.057L162.703 239.901C160.81 241.722 157.844 241.774 157.231 241.045C156.616 240.317 157.844 236.259 157.844 236.259L157.383 236.415C156.462 237.351 156.155 242.034 156.155 242.034C156.155 242.034 155.603 242.528 154.926 243.274L154.936 243.263C154.936 243.263 154.11 241.384 154.442 239.875C154.774 238.366 154.99 238.414 155.388 237.351C155.748 236.392 155.388 233.58 155.388 233.58C155.363 234.386 155.106 236.962 154.57 237.821C154.033 238.678 153.994 240.863 153.994 240.863C153.317 240.838 153.086 240.655 152.345 239.979C151.602 239.302 149.94 236.025 149.94 236.025L149.428 235.869C149.761 236.144 150.937 238.638 151.835 240.239C152.328 241.117 153.802 242.008 153.802 242.008L153.994 244.391L154.002 244.382C153.524 245.01 153.073 245.706 152.779 246.404C152.515 247.034 152.095 247.741 151.634 248.429C151.63 248.419 151.494 248.013 151.485 247.126C151.481 246.831 151.532 246.014 151.634 245.487C151.709 245.099 151.799 244.821 151.878 244.434C152.069 243.497 151.878 243.263 151.878 243.263C151.878 243.635 151.628 244.922 151.38 245.448C151.267 245.684 151.206 245.938 151.168 246.196C151.135 246.417 151.171 246.703 151.098 246.912C150.942 247.368 150.403 246.607 150.257 246.436C150.007 246.139 149.813 245.609 149.592 245.304C149.333 244.946 149.034 244.787 148.77 244.434C148.77 244.434 149.793 246.131 150.024 246.853C150.253 247.576 151.091 247.848 151.091 247.848C151.091 247.848 151.108 248.867 151.148 249.128C150.132 250.538 149.096 251.711 149.096 251.711C149.096 251.711 146.487 248.017 146.692 243.803C146.896 239.589 146.948 240.161 147.715 237.404C148.482 234.647 147.92 229.392 147.92 229.392L147.664 230.172C147.65 231.224 147.596 232.279 147.513 233.328C147.448 234.156 147.324 234.913 147.161 235.655C147.079 235.54 145.381 233.155 145.118 231.719C144.851 230.25 143.775 228 143.775 228L143.636 228.182C143.636 228.182 144.646 230.614 144.658 231.251C144.671 231.889 144.646 233.492 145.797 235.024C146.748 236.289 146.898 236.551 146.923 236.605C146.745 237.246 146.542 237.888 146.293 238.564C145.656 240.291 145.707 242.194 145.668 244.012C145.667 244.041 144.335 243.798 144.243 243.769C143.958 243.679 143.764 243.532 143.53 243.354C143.283 243.165 143.063 242.942 142.859 242.703C142.974 242.308 143.346 240.973 143.341 240.395C143.322 237.912 142.305 236.571 142.305 236.571H141.902C141.902 236.571 142.957 238.444 142.938 239.907C142.923 241.084 142.531 241.821 142.377 242.068C142.136 241.708 141.921 241.33 141.73 240.942C140.757 238.965 137.024 234.749 137.024 234.749L136 234.282C136 234.282 139.581 237.871 141.218 241.618C142.855 245.364 145.668 246.197 145.668 246.197C145.566 247.133 146.129 251.035 146.335 251.451C146.335 251.451 144.39 250.723 142.855 249.624C142.37 249.275 141.956 248.638 141.576 248.173C139.837 246.04 137.536 244.74 137.536 244.74C137.536 244.74 137.637 245.312 137.842 245.364C138.048 245.415 140.093 246.665 141.065 248.433C141.532 249.282 142.481 250.164 143.477 250.867L143.444 250.845C143.181 251.234 142.733 251.451 142.247 251.574C142.076 251.414 141.828 251.2 141.461 250.912C140.042 249.79 138.747 250.043 138.747 250.043C139.265 250.111 140.74 250.496 141.662 251.683C141.406 251.715 141.152 251.731 140.924 251.741C140.645 251.751 140.751 251.73 139.236 251.691C137.72 251.652 136.615 252.075 136.615 252.075C138.609 251.867 140.911 252.283 141.935 252.283C142.957 252.283 143.92 252.124 144.492 251.513L144.482 251.505C145.214 251.919 145.893 252.194 146.335 252.231L146.665 254.588L146.353 271H149.789L149.876 254.768L150.733 252.127C152.062 251.711 154.622 250.774 154.622 250.774C154.622 250.774 156.36 252.7 159.737 252.44C163.113 252.179 167 253.636 167 253.636V253.324C167 253.011 163.675 252.127 160.197 251.919Z" fill="#DBDBDB"/>
<path fill-rule="evenodd" clip-rule="evenodd" d="M262.979 270.08L277.566 262L292.154 270.08H287.814V287.689H268.717V270.08H262.979Z" fill="#EDEDED"/>
<path fill-rule="evenodd" clip-rule="evenodd" d="M294.662 282.351H291.355L291.655 267.425H294.747L294.662 282.351Z" fill="#EDEDEC"/>
<path fill-rule="evenodd" clip-rule="evenodd" d="M303.977 273.919C303.512 273.892 303.1 273.836 302.735 273.762C302.9 273.501 303.478 272.726 304.756 272.267C306.304 271.712 307.278 271.695 307.278 271.695C304.283 271.609 302.625 272.851 302.017 273.568C300.205 272.966 299.911 271.838 299.911 271.838C299.911 271.838 303.026 270.486 303.977 269.34C304.928 268.196 308.307 265.126 310.155 264.606L310.208 263.982C310.208 263.982 305.455 266.427 303.343 268.404C301.23 270.382 295.37 272.202 295.37 272.202C295.37 272.202 297.165 268.3 297.904 267.624C298.643 266.947 300.175 264.763 300.65 264.606C301.038 264.479 301.457 264.565 301.865 264.581C304.415 264.675 306.987 262.057 306.987 262.057L306.564 261.901C304.611 263.722 301.547 263.775 300.914 263.046C300.28 262.317 301.547 258.259 301.547 258.259L301.072 258.415C300.122 259.351 299.805 264.034 299.805 264.034C299.805 264.034 299.235 264.527 298.536 265.275L298.546 265.263C298.546 265.263 297.693 263.384 298.036 261.875C298.379 260.367 298.602 260.414 299.013 259.351C299.384 258.392 299.013 255.579 299.013 255.579C298.986 256.386 298.723 258.962 298.168 259.82C297.614 260.678 297.574 262.863 297.574 262.863C296.874 262.838 296.637 262.655 295.871 261.979C295.105 261.303 293.389 258.025 293.389 258.025L292.861 257.869C293.205 258.144 294.417 260.639 295.345 262.24C295.855 263.118 297.376 264.009 297.376 264.009L297.574 266.391L297.582 266.382C297.089 267.009 296.624 267.706 296.32 268.404C296.046 269.033 295.613 269.741 295.137 270.429C295.135 270.42 294.993 270.014 294.983 269.127C294.98 268.831 295.032 268.014 295.137 267.488C295.215 267.1 295.308 266.821 295.389 266.434C295.587 265.497 295.389 265.263 295.389 265.263C295.389 265.634 295.132 266.922 294.875 267.449C294.759 267.684 294.695 267.937 294.656 268.196C294.622 268.417 294.659 268.702 294.584 268.913C294.423 269.369 293.866 268.608 293.717 268.436C293.458 268.14 293.258 267.61 293.029 267.304C292.763 266.947 292.455 266.787 292.181 266.434C292.181 266.434 293.237 268.132 293.474 268.853C293.713 269.574 294.577 269.848 294.577 269.848C294.577 269.848 294.595 270.868 294.635 271.129C293.587 272.539 292.518 273.711 292.518 273.711C292.518 273.711 289.824 270.017 290.036 265.803C290.247 261.589 290.299 262.161 291.092 259.404C291.884 256.646 291.304 251.392 291.304 251.392L291.039 252.172C291.025 253.225 290.968 254.278 290.883 255.327C290.817 256.156 290.688 256.913 290.52 257.655C290.435 257.54 288.683 255.154 288.413 253.72C288.135 252.25 287.026 250 287.026 250L286.88 250.182C286.88 250.182 287.923 252.614 287.938 253.252C287.95 253.889 287.923 255.492 289.112 257.024C290.094 258.289 290.249 258.551 290.274 258.604C290.09 259.246 289.881 259.888 289.624 260.564C288.967 262.291 289.02 264.195 288.98 266.011C288.979 266.041 287.603 265.797 287.508 265.769C287.213 265.68 287.013 265.532 286.772 265.354C286.517 265.166 286.291 264.942 286.081 264.704C286.199 264.308 286.582 262.974 286.577 262.395C286.557 259.913 285.508 258.571 285.508 258.571H285.092C285.092 258.571 286.181 260.444 286.161 261.908C286.145 263.085 285.741 263.821 285.582 264.069C285.333 263.708 285.111 263.331 284.914 262.942C283.911 260.965 280.056 256.75 280.056 256.75L279 256.282C279 256.282 282.696 259.872 284.386 263.618C286.075 267.363 288.98 268.196 288.98 268.196C288.874 269.132 289.456 273.035 289.667 273.451C289.667 273.451 287.66 272.723 286.075 271.623C285.574 271.276 285.147 270.639 284.755 270.173C282.96 268.04 280.584 266.74 280.584 266.74C280.584 266.74 280.689 267.312 280.901 267.363C281.112 267.416 283.224 268.664 284.228 270.433C284.709 271.282 285.689 272.164 286.718 272.867L286.684 272.846C286.413 273.235 285.95 273.451 285.447 273.575C285.272 273.415 285.014 273.2 284.636 272.912C283.171 271.789 281.834 272.043 281.834 272.043C282.368 272.112 283.893 272.496 284.843 273.683C284.579 273.715 284.318 273.732 284.083 273.74C283.794 273.751 283.904 273.731 282.339 273.692C280.776 273.653 279.634 274.075 279.634 274.075C281.692 273.868 284.068 274.283 285.126 274.283C286.181 274.283 287.174 274.124 287.766 273.512L287.755 273.505C288.511 273.92 289.212 274.194 289.667 274.232L290.008 276.588L289.686 293H293.233L293.324 276.767L294.208 274.128C295.581 273.711 298.221 272.775 298.221 272.775C298.221 272.775 300.016 274.7 303.502 274.439C306.987 274.179 311 275.637 311 275.637V275.324C311 275.012 307.568 274.128 303.977 273.919Z" fill="#D8D8D8"/>
<path fill-rule="evenodd" clip-rule="evenodd" d="M-43 353.886C-43 353.886 -1.15916 377 213.992 377C429.14 377 432 351.602 432 351.602C375.515 275.978 330.499 277.635 283.694 279.287C257.081 280.223 229.889 281.167 199.687 267.901C181.588 259.949 163.217 257 145.473 257C112.263 257 81.258 267.342 58.3866 274.629C23.2989 285.801 -43 353.886 -43 353.886Z" fill="#FBFAFA"/>
<mask id="mask2" mask-type="alpha" maskUnits="userSpaceOnUse" x="-43" y="257" width="475" height="120">
<path fill-rule="evenodd" clip-rule="evenodd" d="M-43 353.886C-43 353.886 -1.15916 377 213.992 377C429.14 377 432 351.602 432 351.602C375.515 275.978 330.499 277.635 283.694 279.287C257.081 280.223 229.889 281.167 199.687 267.901C181.588 259.949 163.217 257 145.473 257C112.263 257 81.258 267.342 58.3866 274.629C23.2989 285.801 -43 353.886 -43 353.886Z" fill="white"/>
</mask>
<g mask="url(#mask2)">
<path fill-rule="evenodd" clip-rule="evenodd" d="M-86.5251 354C-80.3351 353.168 10.2099 288.449 70.8737 273.956C106.696 265.397 151.296 249.194 199.279 270.436C247.264 291.679 301.898 279.52 327.926 285.031C354.702 290.701 385.681 305.974 433.954 339.188C484.746 374.135 459.947 52 459.947 52L-7.92616 89.4718L-89 129.234L-86.5251 354Z" fill="#E8E8E8"/>
</g>
<mask id="mask3" mask-type="alpha" maskUnits="userSpaceOnUse" x="116" y="282" width="145" height="35">
<path fill-rule="evenodd" clip-rule="evenodd" d="M116 282.246H260.748V316.388H116V282.246Z" fill="white"/>
</mask>
<g mask="url(#mask3)">
<path fill-rule="evenodd" clip-rule="evenodd" d="M260.686 292.622C259.29 286.15 226.77 277.446 189.477 285.468C152.182 293.489 116.876 300.342 116.012 306.905C115.212 312.975 154.134 313.642 192.209 311.286C198.378 310.905 203.243 309.014 209.453 310.211C216.085 311.49 224.062 316.144 230.871 316.375C232.537 316.432 234.288 316.332 235.719 315.478C237.5 314.417 238.445 312.417 239.563 310.671C243.117 305.118 245.265 302.022 250.999 300.559C253.674 299.875 261.525 296.522 260.686 292.622Z" fill="black" fill-opacity="0.1"/>
</g>
<path fill-rule="evenodd" clip-rule="evenodd" d="M230.437 265.949C229.5 264.722 227.559 263.253 227.058 262.928C227.306 263.455 227.366 263.651 227.285 263.827C226.532 262.921 225.358 262.309 225.175 262.198C225.701 263.039 225.851 264.071 225.851 264.071L228.536 265.748L230.437 265.949Z" fill="#B37F3E"/>
<path fill-rule="evenodd" clip-rule="evenodd" d="M164.632 307.619C165.134 307.489 166.208 308.326 166.53 309.281C166.979 310.611 166.269 311.537 165.964 311.588C165.66 311.639 165.722 311.392 165.684 310.945C165.645 310.498 165.139 309.508 164.703 309.278C164.831 308.752 164.721 307.943 164.632 307.619Z" fill="#230700"/>
<mask id="mask4" mask-type="alpha" maskUnits="userSpaceOnUse" x="156" y="312" width="3" height="5">
<path fill-rule="evenodd" clip-rule="evenodd" d="M156.026 312.019H158.508V316.491H156.026V312.019Z" fill="white"/>
</mask>
<g mask="url(#mask4)">
<path fill-rule="evenodd" clip-rule="evenodd" d="M157.798 312.055C157.309 311.888 156.293 312.286 156.058 313.398C155.869 314.291 156.541 315.766 157.379 316.353C158.136 316.884 157.948 315.732 157.864 315.426C157.736 314.963 157.89 314.169 158.343 313.477C158.795 312.784 158.22 312.2 157.798 312.055Z" fill="#230700"/>
</g>
<path fill-rule="evenodd" clip-rule="evenodd" d="M157.403 312.497C157.683 312.12 158.469 311.936 159.354 312.519C160.313 313.152 160.704 314.366 160.502 315.456C160.358 316.235 159.977 316.075 159.76 315.608C159.544 315.142 158.907 314.201 158.11 313.987C157.312 313.773 157.029 312.999 157.403 312.497Z" fill="#230700"/>
<path fill-rule="evenodd" clip-rule="evenodd" d="M159.776 311.497C159.993 310.976 161.605 310.604 162.571 312.016C163.382 313.201 162.683 315.003 162.323 315.046C161.963 315.088 162.042 314.691 161.932 314.217C161.803 313.655 161.433 313.203 160.756 312.885C160.118 312.585 159.513 312.131 159.776 311.497Z" fill="#230700"/>
<path fill-rule="evenodd" clip-rule="evenodd" d="M162.136 309.799C162.612 309.218 163.969 309.59 164.522 310.682C165.074 311.773 164.608 313.251 164.405 313.5C164.201 313.748 164.093 313.546 164.033 313.147C163.974 312.748 163.782 312.112 163.023 311.649C162.566 311.371 161.408 310.687 162.136 309.799Z" fill="#230700"/>
<path fill-rule="evenodd" clip-rule="evenodd" d="M157.101 273.775C150.313 269.93 139.433 281.08 145.706 301.03C151.98 320.979 165.147 313.925 166.049 307.895C167.005 301.508 162.307 301.747 165.187 293.865C168.068 285.983 170.98 279.769 167.761 276.014" fill="#996D35"/>
<path fill-rule="evenodd" clip-rule="evenodd" d="M148.363 263.429C160.923 256.866 192.303 237.223 218.442 248.195C221.614 249.526 232.813 254.473 235.383 261.966C236.845 266.233 243.498 291.975 236.307 295.266C229.117 298.556 186.388 306.817 171.276 304.867C156.163 302.917 140.15 300.243 137.855 289.998C134.58 275.373 143.668 265.883 148.363 263.429Z" fill="#B37F3E"/>
<mask id="mask5" mask-type="alpha" maskUnits="userSpaceOnUse" x="137" y="244" width="103" height="62">
<path fill-rule="evenodd" clip-rule="evenodd" d="M148.363 263.429C143.668 265.883 134.58 275.374 137.855 289.999C140.15 300.243 156.163 302.917 171.276 304.867C186.388 306.817 229.117 298.556 236.308 295.266C243.498 291.975 236.846 266.233 235.382 261.966C232.813 254.473 221.614 249.526 218.443 248.194C212.927 245.88 207.184 244.928 201.428 244.928C179.904 244.93 158.273 258.251 148.363 263.429Z" fill="white"/>
</mask>
<g mask="url(#mask5)">
<path fill-rule="evenodd" clip-rule="evenodd" d="M227.581 293.373C210.146 285.569 216.949 270.467 217.842 268.525C217.906 268.386 217.96 268.266 217.931 268.121C216.851 268.486 215.85 270.074 215.164 270.938C213.218 273.393 212.411 276.041 209.244 277.325C207.145 278.177 204.668 277.7 202.482 277.408C201.676 277.3 200.687 277.569 199.955 277.163C200.968 279.55 204.781 279.929 206.632 281.441C209.903 284.115 212.441 287.687 215.761 290.3C223.57 296.445 227.806 297.737 230.606 297.524C233.407 297.312 238.275 295.102 238.275 295.102L227.581 293.373Z" fill="#996D35"/>
</g>
<mask id="mask6" mask-type="alpha" maskUnits="userSpaceOnUse" x="137" y="244" width="103" height="62">
<path fill-rule="evenodd" clip-rule="evenodd" d="M148.363 263.429C143.668 265.883 134.58 275.374 137.855 289.999C140.15 300.243 156.163 302.917 171.276 304.867C186.388 306.817 229.117 298.556 236.308 295.266C243.498 291.975 236.846 266.233 235.382 261.966C232.813 254.473 221.614 249.526 218.443 248.194C212.927 245.88 207.184 244.928 201.428 244.928C179.904 244.93 158.273 258.251 148.363 263.429Z" fill="white"/>
</mask>
<g mask="url(#mask6)">
<path fill-rule="evenodd" clip-rule="evenodd" d="M203.603 302.211C197.844 300.175 192.18 299.288 186.786 299.868C181.391 300.448 184.165 299.097 199.033 304.014C203.339 305.438 204.024 302.57 204.838 302.932C205.652 303.293 203.603 302.211 203.603 302.211Z" fill="#996D35"/>
</g>
<mask id="mask7" mask-type="alpha" maskUnits="userSpaceOnUse" x="137" y="244" width="103" height="62">
<path fill-rule="evenodd" clip-rule="evenodd" d="M148.363 263.429C143.668 265.883 134.58 275.374 137.855 289.999C140.15 300.243 156.163 302.917 171.276 304.867C186.388 306.817 229.117 298.556 236.308 295.266C243.498 291.975 236.846 266.233 235.382 261.966C232.813 254.473 221.614 249.526 218.443 248.194C212.927 245.88 207.184 244.928 201.428 244.928C179.904 244.93 158.273 258.251 148.363 263.429Z" fill="white"/>
</mask>
<g mask="url(#mask7)">
<path fill-rule="evenodd" clip-rule="evenodd" d="M158.352 270.363C159.803 272.891 167.125 292.273 168.269 285.98C169.413 279.686 163.836 270.546 158.901 267.895C153.964 265.245 156.291 266.773 158.352 270.363Z" fill="#996D35"/>
</g>
<path fill-rule="evenodd" clip-rule="evenodd" d="M199.947 276.592C204.822 279.391 212.287 286.649 216.552 289.329C220.818 292.011 230.102 296.399 231.909 298.714C233.471 300.716 235.017 307.792 233.554 310.717C232.093 313.642 228.801 316.079 223.804 314.617C217.177 312.677 212.697 307.054 206.736 303.837C202.325 301.456 197.059 300.718 192.142 300.242C189.096 299.947 186.036 299.806 182.976 299.748" fill="#B37F3E"/>
<path fill-rule="evenodd" clip-rule="evenodd" d="M227.011 313.776C226.868 314.683 228.519 315.942 229.661 316.218C230.804 316.495 228.674 314.466 228.336 313.776C228.013 313.115 227.148 312.901 227.011 313.776Z" fill="#230700"/>
<path fill-rule="evenodd" clip-rule="evenodd" d="M233.071 304.718C233.936 305.017 235.22 307.521 235.326 308.637C235.431 309.754 233.914 307.246 232.882 306.678C231.849 306.109 231.975 304.338 233.071 304.718Z" fill="#230700"/>
<path fill-rule="evenodd" clip-rule="evenodd" d="M232.174 307.352C232.92 308.051 234.147 309.523 234.442 311.145C234.737 312.768 232.903 309.86 231.555 309.248C230.206 308.637 230.961 306.214 232.174 307.352Z" fill="#230700"/>
<path fill-rule="evenodd" clip-rule="evenodd" d="M230.978 309.781C232.606 310.505 233.324 312.683 233.324 313.534C233.324 314.385 231.635 312.145 230.978 311.932C230.32 311.718 229.698 309.213 230.978 309.781Z" fill="#230700"/>
<path fill-rule="evenodd" clip-rule="evenodd" d="M165.115 305.01L163.8 305.697C146.794 312.909 134.045 310.368 126.483 299.722C120.066 290.687 124.219 276.112 131.269 269.284L132.312 268.365C146.376 255.969 164.442 267.999 167.889 281.528C170.795 292.93 172.421 300.364 165.088 304.967" fill="#B37F3E"/>
<path fill-rule="evenodd" clip-rule="evenodd" d="M153.042 297.75C153.04 294.771 154.884 291.992 161.289 290.894C170.146 289.375 171.793 296.261 171.608 299.693C171.459 302.472 169.543 305.73 164.627 306.266C163.439 306.396 161.984 305.703 160.375 305.113C154.619 303.004 153.044 300.313 153.042 297.75Z" fill="#EEC082"/>
<path fill-rule="evenodd" clip-rule="evenodd" d="M165.009 299.892C165.344 297.307 165.941 296.022 167.524 296.994C168.762 297.754 169.259 299.212 169.137 300.387C169.047 301.253 168.174 302.623 166.846 303.213C165.148 303.966 164.686 302.383 165.009 299.892Z" fill="black"/>
<path fill-rule="evenodd" clip-rule="evenodd" d="M166.234 300.333C166.32 299.407 166.463 298.639 166.683 298.104C166.763 297.909 166.49 297.768 166.376 297.944C166.067 298.421 165.882 299.247 165.785 300.291C165.687 301.335 165.715 302.181 165.93 302.706C166.01 302.902 166.289 302.832 166.247 302.626C166.13 302.06 166.147 301.259 166.234 300.333Z" fill="#424242"/>
<path fill-rule="evenodd" clip-rule="evenodd" d="M133.953 306.465C133.748 306.895 133.222 307.22 132.582 307.484C131.682 307.855 130.448 308.147 129.474 308.149C127.224 308.153 124.06 307.914 122.76 305.751C121.832 304.209 122.313 302.271 123.038 300.752C123.765 299.228 124.872 297.689 126.266 296.699C126.507 296.529 126.767 296.347 127.048 296.249C127.889 295.959 128.007 296.55 128.381 297.226C129.154 298.62 129.976 299.993 130.933 301.273C131.886 302.546 132.715 303.868 133.674 305.148C134.07 305.676 134.123 306.108 133.953 306.465Z" fill="#996D35"/>
<path fill-rule="evenodd" clip-rule="evenodd" d="M229.562 311.859C231.255 312.723 231.396 314.734 231.45 315.493C231.503 316.253 230.646 314.408 229.929 314.058C229.213 313.71 228.482 311.308 229.562 311.859Z" fill="#230700"/>
<path fill-rule="evenodd" clip-rule="evenodd" d="M135.588 258.791C131.648 260.559 130.201 265.478 132.095 269.745C132.322 270.258 132.65 270.403 133.109 270.331C133.761 270.228 135.505 269.54 137.603 268.99C140.078 268.341 142.07 268.321 142.702 267.885C143.162 267.567 143.122 266.364 142.832 265.008C142.239 262.238 140.006 256.811 135.588 258.791Z" fill="#996D35"/>
<path fill-rule="evenodd" clip-rule="evenodd" d="M152.181 304.391C152.45 304.609 152.112 305.246 151.499 304.812C150.87 304.365 150.532 303.403 150.708 302.581C150.884 301.759 151.452 301.328 152.236 301.124C152.945 300.941 153.086 301.639 152.651 301.741C151.985 301.895 151.629 302.413 151.558 302.815C151.441 303.473 151.642 303.954 152.181 304.391Z" fill="#87612B"/>
<path fill-rule="evenodd" clip-rule="evenodd" d="M152.303 303.217C152.33 302.797 152.454 302.394 152.656 302.073C152.777 301.88 153.262 301.494 152.962 301.183C152.89 301.107 152.781 301.154 152.693 301.175C152.479 301.229 152.274 301.348 152.096 301.52C151.74 301.865 151.508 302.414 151.469 303.007C151.437 303.496 151.536 303.991 151.747 304.39C151.894 304.667 152.313 305.273 152.558 304.801C152.651 304.623 152.543 304.538 152.476 304.37C152.336 304.02 152.277 303.614 152.303 303.217Z" fill="black"/>
<path fill-rule="evenodd" clip-rule="evenodd" d="M154.233 289.089C154.584 289.061 154.534 288.236 153.777 288.345C153 288.455 152.248 289.108 152.069 289.988C151.899 290.827 152.201 291.481 152.753 292.016C153.288 292.534 153.564 291.937 153.232 291.626C152.731 291.157 152.69 290.509 152.826 290.117C152.962 289.726 153.345 289.161 154.233 289.089Z" fill="#87612B"/>
<path fill-rule="evenodd" clip-rule="evenodd" d="M153.485 290.221C153.565 289.803 153.794 289.454 154.109 289.174C154.224 289.072 154.521 288.951 154.412 288.766C154.331 288.628 154.141 288.677 154.013 288.703C153.767 288.752 153.531 288.852 153.323 288.993C152.913 289.273 152.626 289.711 152.533 290.199C152.42 290.797 152.608 291.425 153.032 291.863C153.238 292.075 153.496 292.241 153.777 292.334C154.133 292.453 154.174 292.082 153.964 291.863C153.826 291.718 153.713 291.548 153.628 291.367C153.462 291.011 153.412 290.607 153.485 290.221Z" fill="black"/>
<path fill-rule="evenodd" clip-rule="evenodd" d="M170.609 297.865C170.705 297.73 170.819 297.816 170.78 297.934C170.586 298.521 170.415 299.277 170.302 300.14C170.217 300.8 170.162 301.525 170.159 302.364C170.159 302.489 170 302.512 169.975 302.349C169.898 301.827 169.836 300.858 169.958 300.002C170.059 299.291 170.304 298.296 170.609 297.865Z" fill="black"/>
<path fill-rule="evenodd" clip-rule="evenodd" d="M246.627 294.473C247.306 294.198 247.914 293.767 248.426 293.243C252.236 289.343 252.145 285.871 251.01 281.203C250.728 280.042 249.469 277.285 249.469 277.285C249.643 279.55 245.98 294.118 234.777 294.694C239.202 295.512 243.621 295.693 246.627 294.473Z" fill="#996D35"/>
<path fill-rule="evenodd" clip-rule="evenodd" d="M235.739 295.308C246.94 294.732 250.779 281.232 250.228 279C249.349 275.866 247.816 271.378 245.822 268.824C243.073 265.301 238.706 263.734 234.335 263.734C226.841 263.734 220.028 264.756 216.053 270.661C208.317 282.155 219.061 295.539 234.05 295.312C234.643 295.303 235.188 295.363 235.739 295.308Z" fill="#B37F3E"/>
<path fill-rule="evenodd" clip-rule="evenodd" d="M248.079 288.421C247.767 290.223 252.318 293.2 252.182 292.297C252.044 291.393 249.961 289.86 249.869 288.642C249.776 287.423 248.243 287.471 248.079 288.421Z" fill="#230700"/>
<path fill-rule="evenodd" clip-rule="evenodd" d="M246.443 290.88C245.847 292.057 248.324 294.423 250.341 294.116C251.556 293.932 248.756 292.854 248.261 291.638C247.767 290.422 246.929 289.918 246.443 290.88Z" fill="#230700"/>
<path fill-rule="evenodd" clip-rule="evenodd" d="M244.022 293.109C244.266 294.362 246.637 296.53 247.792 296.416C248.945 296.302 246.507 294.454 245.86 292.83C245.384 291.637 243.743 291.674 244.022 293.109Z" fill="#230700"/>
<path fill-rule="evenodd" clip-rule="evenodd" d="M242.094 293.787C241.666 295.298 244.511 297.118 245.322 297.18C246.132 297.242 244.375 295.448 243.494 294.079C242.976 293.274 242.294 293.079 242.094 293.787Z" fill="#230700"/>
<path fill-rule="evenodd" clip-rule="evenodd" d="M240.213 294.789C239.88 295.644 241.221 297.227 242.277 297.743C243.334 298.259 241.689 295.82 241.508 295.073C241.334 294.358 240.535 293.964 240.213 294.789Z" fill="#230700"/>
<mask id="mask8" mask-type="alpha" maskUnits="userSpaceOnUse" x="154" y="153" width="10" height="12">
<path fill-rule="evenodd" clip-rule="evenodd" d="M154.232 153.226H163.438V164.139H154.232V153.226Z" fill="white"/>
</mask>
<g mask="url(#mask8)">
<path fill-rule="evenodd" clip-rule="evenodd" d="M158.776 156.186L154.853 157.43L154.232 155.333L161.002 153.225L161.539 155.285L158.952 161.031L162.872 159.701L163.438 161.857L156.459 164.139L156.013 162.629L158.776 156.186Z" fill="#FFCD30"/>
</g>
<path fill-rule="evenodd" clip-rule="evenodd" d="M150.264 174.708L143.039 173.544L143.6 169.852L156.039 171.921L155.37 175.487L146.942 182.251L154.229 183.279L153.531 187.018L140.63 185.056L141.034 182.398L150.264 174.708Z" fill="#FFCD30"/>
<path fill-rule="evenodd" clip-rule="evenodd" d="M147.516 199.485L139.709 201.392L138.7 197.417L152.174 194.198L153.018 198.095L147.377 208.539L155.19 206.467L156.08 210.55L142.185 214.072L141.459 211.21L147.516 199.485Z" fill="#FFCD30"/>
<path fill-rule="evenodd" clip-rule="evenodd" d="M141.197 226.894L134.467 226.665L134.553 223.23L146.15 223.681L145.949 227.015L139.037 234.165L145.808 234.262L145.602 237.757L133.597 237.456L133.659 234.983L141.197 226.894Z" fill="#FFE9B8"/>
<path fill-rule="evenodd" clip-rule="evenodd" d="M147.124 250.742L142.947 249.483L143.57 247.346L150.757 249.554L150.079 251.607L144.564 254.938L148.787 256.121L148.08 258.276L140.611 256.095L141.062 254.556L147.124 250.742Z" fill="#FFF0C5"/>
<path fill-rule="evenodd" clip-rule="evenodd" d="M125.351 282.345C123.88 283.037 122.407 284.92 122.104 285.428C122.79 285.327 123.059 285.333 123.345 285.51C122.28 286.1 121.794 287.352 121.696 287.541C122.746 287.214 124.208 287.45 124.208 287.45L125.725 284.701L125.351 282.345Z" fill="#B37F3E"/>
<path fill-rule="evenodd" clip-rule="evenodd" d="M144.233 265.255C145.17 264.028 147.111 262.559 147.613 262.234C147.364 262.76 147.304 262.957 147.386 263.133C148.139 262.227 149.312 261.614 149.496 261.504C148.969 262.345 148.82 263.377 148.82 263.377L146.135 265.054L144.233 265.255Z" fill="#B37F3E"/>
<mask id="mask9" mask-type="alpha" maskUnits="userSpaceOnUse" x="182" y="37" width="62" height="17">
<path fill-rule="evenodd" clip-rule="evenodd" d="M182.383 37.3604H243.053V53.1816H182.383V37.3604Z" fill="white"/>
</mask>
<g mask="url(#mask9)">
<path fill-rule="evenodd" clip-rule="evenodd" d="M189.817 52.1504C193.4 53.0302 199.672 52.5488 199.672 52.5488C202.358 53.8284 220.425 53.075 224.007 51.1183C224.007 51.1183 233.116 53.226 239.536 49.9148C245.956 46.605 242.67 43.4462 236.998 41.6404C231.324 39.8345 224.007 41.6404 224.007 41.6404C216.693 34.2675 200.568 37.8778 197.432 41.6404C197.432 41.6404 186.683 41.3385 183.697 44.3491C180.709 47.3584 183.547 49.9148 185.039 50.6668C186.532 51.4201 189.817 52.1504 189.817 52.1504Z" fill="white"/>
</g>
<mask id="mask10" mask-type="alpha" maskUnits="userSpaceOnUse" x="89" y="53" width="73" height="26">
<path fill-rule="evenodd" clip-rule="evenodd" d="M89.6733 53.0975H161.595V78.6979H89.6733V53.0975Z" fill="white"/>
</mask>
<g mask="url(#mask10)">
<path fill-rule="evenodd" clip-rule="evenodd" d="M158.92 66.8997C155.623 64.3813 147.478 65.4855 144.346 66.1382C141.215 66.7909 140.243 66.8997 140.243 66.8997C138.623 64.3976 128.259 62.5483 125.236 63.3084C125.236 63.3084 126.316 58.0881 120.811 55.1495C115.305 52.2123 103.644 52.2123 97.0592 56.5638C90.473 60.9165 86.3696 67.5143 93.1717 74.4426C99.9738 81.3708 176.733 80.4992 158.92 66.8997Z" fill="white"/>
</g>
<path fill-rule="evenodd" clip-rule="evenodd" d="M242.933 75.9538C244.618 79.129 254.522 79.7912 260.59 79.7463C266.66 79.7014 277.927 78.9631 279.346 75.6818C280.767 72.4006 270.936 71.7098 268.34 72.4387C268.34 72.4387 267.299 69.6878 261.813 69.1085C260.366 68.9562 255.067 68.8324 252.294 71.7411C252.294 71.7411 240.686 71.7193 242.933 75.9538Z" fill="white"/>
</g>
</svg>
